<?xml version="1.0" encoding="UTF-8"?><svg id="a" xmlns="http://www.w3.org/2000/svg" viewBox="0 0 506.99 133.54"><defs><style>.b{letter-spacing:0em;}.b,.c,.d,.e,.f{fill:#231f20;}.c{letter-spacing:-.03em;}.d{letter-spacing:0em;}.e{letter-spacing:-.01em;}.g{fill:#232215;letter-spacing:-.06em;}.h{font-family:Gabriola, Gabriola;font-size:91.85px;}</style></defs><text class="h" transform="translate(0 71.56)"><tspan class="f" x="0" y="0">B</tspan><tspan class="e" x="40.41" y="0">r</tspan><tspan class="d" x="66.38" y="0">ando</tspan><tspan class="c" x="210.1" y="0">n</tspan><tspan class="g" x="246.59" y="0">’</tspan><tspan class="f" x="254.97" y="0">s </tspan><tspan class="b" x="297.6" y="0">R</tspan><tspan class="f" x="340.1" y="0">ecipes</tspan></text><g><path class="f" d="M1.37,103.69c-.74-.04-.48,.38-.59,.46,1.25-.09,.56-.57,.59-.46Z"/><polygon class="f" points="13.66 102.74 13.45 102.91 15.26 102.49 13.66 102.74"/><path class="f" d="M25.15,102.75c-1.09-.71-4.16,.12-6.21-.14l-.34-.16-.92,.57c2.49-.09,5.72-.47,7.47-.27Z"/><path class="f" d="M31.28,104.29c-.38-.28,1.33-.24-1.43-.09,.14,.03,.18,.05,.26,.07,.25,0,.59,0,1.17,.02Z"/><path class="f" d="M30.11,104.28c-1.21,.02,.79,.23,0,0h0Z"/><path class="f" d="M35.7,104.12l-1.59,.25c.33,.16,1.75,.2,1.22,.32,1.64-.14,1.3-.3,.37-.57Z"/><path class="f" d="M37.21,103.6l-.83,.1c.14,.07,.36,.09,.83-.1Z"/><path class="f" d="M34.63,103.92l1.75-.22c-.23-.12-.26-.35-.8,.08,.14-.21-.2,0-.95,.14Z"/><path class="f" d="M33.64,103.82c-.89-.16-2.05-.25-.45-.5-3.05,.1-2.6,.6,.45,.5Z"/><path class="f" d="M25.74,102.01l-1.2-.21-1.03,.24c.52-.12,2.3,.19,2.23-.03Z"/><path class="f" d="M45.63,104.49c.1-.15-.54-.4-.65-.6l-1.18,.17c.61,.1,1.75,.2,1.83,.42Z"/><path class="f" d="M44.98,103.89l1.76-.26c-1.57-.03-1.86,.09-1.76,.26Z"/><polygon class="f" points="37.5 102.81 34.6 103.35 38.05 102.8 37.5 102.81"/><polygon class="f" points="52.36 104.51 51.36 104.86 53.14 104.33 52.36 104.51"/><path class="f" d="M56.82,104.45c-.74,.29,1.01,.49,.23,.67,1.21-.05,2.25-.3,3.18-.53-.99,.13-2.05,.09-3.41-.14Z"/><path class="f" d="M61.8,104.26c-.49,.07-1.01,.19-1.57,.33,.53-.07,1.04-.16,1.57-.33Z"/><path class="f" d="M49.74,103.7c.14,.09,.4,.33,1.39,.43l-.69-.43c-.21,0-.45,0-.69,0Z"/><path class="f" d="M50.41,103.7h.02c.75,.02,1.27,.03,1.5,.04-.19,0-.65-.01-1.52-.04Z"/><path class="f" d="M49.56,103.7c.06,0,.11,0,.17,0-.07-.04-.11-.06-.17,0Z"/><path class="f" d="M42.11,103.19c1.04-.24,3.19-.5,1.1-.86-.74,.29,.45,.5-1.1,.86Z"/><path class="f" d="M48.7,103.17l-1.87-.1c.04,.11,.37,.28-.14,.4l2.01-.3Z"/><polygon class="f" points="49.62 103.03 48.7 103.17 49.4 103.2 49.62 103.03"/><path class="f" d="M58.59,103.86c.81-.19,1.69-.2,2.69-.23-1.07-.08-2.18-.13-3.23-.13-.15,.13-.61,.38,.54,.36Z"/><path class="f" d="M54.62,103.74c.06,0,.13-.01,.18-.02-.11-.04-.2-.05-.18,.02Z"/><path class="f" d="M71.12,103.64c-.05-.02-.1-.05-.16-.08-.01,.03-.02,.05-.04,.07h.19Z"/><path class="f" d="M57.88,103.42c-.8-.08-1.29,.02-1.74,.15,.6-.04,1.24-.07,1.92-.07,.07-.06,.08-.1-.18-.08Z"/><path class="f" d="M64.54,104.06c-.42-.09-.89-.17-1.39-.23,.41,.14,1.25,.35,1.39,.23Z"/><path class="f" d="M55.07,103.84s-.08,.01-.12,.02c.26,.09,.23,.05,.12-.02Z"/><path class="f" d="M55.07,103.84c.41-.06,.74-.17,1.07-.26-.49,.03-.94,.08-1.34,.14,.1,.03,.2,.08,.27,.12Z"/><path class="f" d="M74.1,100.89c-.14,.4-2.26,.76-4.08,.34-1.8,.3-.62,1.6,.95,2.33,.06-.17,.06-.33,1.91-.57-.65-.22-4.1-.51-2.54-.86,2.45-.2,2.01,.14,3.2,.35-1.01-.49,3.12-.72,2.58-1.44l-2.15,.26c-.04-.11,.74-.29,.14-.4Z"/><path class="f" d="M67.44,103.52l-.76,.05c.87,.07,1.49,.23,2.63,.54,1.27-.19,1.53-.34,1.62-.47l-3.75-.06,.26-.06Z"/><path class="f" d="M63.26,103.57c.59-.43,2.42-.61,1.3-1.08-2.23,.03-1.56,.36-2.9,.55,3.6-.11-1.04,.24,1.57,.48-.71,.07-1.35,.1-1.95,.11,.65,.05,1.27,.12,1.86,.2-.03,0-.06-.02-.08-.03h-.01c-.16-.06-.21-.09-.03-.06,.01,0,.06,0,.08,0,.02-.06,.09-.11,.16-.16,1.04,.09,.16,.11-.16,.16-.01,.02-.04,.04-.04,.06h.01l3.61-.23c-.76-.06-1.72-.05-3.42,0Z"/><path class="f" d="M45.14,101.41c.11,.04,.11,.07,.12,.1,.23-.05,.32-.09-.12-.1Z"/><path class="f" d="M46.63,101.67c-.26,.06-.48,.23-1.33,.19-.74-.13,0-.21-.04-.35-.51,.11-1.8,.31-.19,.52l.26-.06c1.45,.15,3.32,.69,3.07,.74-.42-.39-.8-.66-1.77-1.04Z"/><path class="f" d="M55.05,102.51l3.01-.21-1.53-.37,.08,.22c-1.71-.09-1.34,.19-1.55,.36Z"/><polygon class="f" points="71.46 103.85 71.06 104.3 72.8 103.66 71.46 103.85"/><polygon class="f" points="75.37 103.79 75.22 104.19 76.25 103.95 75.37 103.79"/><path class="f" d="M295.8,98.88l.88-.11c-.42,.03-.69,.07-.88,.11Z"/><path class="f" d="M289.41,98.86l-.16,.19c.3-.11,.42-.19,.16-.19Z"/><path class="f" d="M171.3,103.75c1.29,.37,2.72,.94,2.57,.5l-.4-.43c-.9,.08-1.59,.03-2.17-.06Z"/><path class="f" d="M237.01,101.16c-.12-.04-.25-.09-.38-.13-.31,.15-.61,.29-.87,.42,.37-.09,.8-.18,1.25-.28Z"/><path class="f" d="M237.92,99.36l1.7,.28c-.38-.1-.93-.19-1.7-.28Z"/><path class="f" d="M330.72,98.42l1.03-.44c-1.61,0-.9,.23-1.03,.44Z"/><path class="f" d="M115.38,103.64c1.11,.17,1.99,.24,2.77,.26-1.34-.25-2.42-.62-2.77-.26Z"/><path class="f" d="M293.28,103.49c.54-.08,.77-.17,.76-.26-.56,.07-.87,.16-.76,.26Z"/><path class="f" d="M121.35,103.9c-.2-.04-.39-.07-.59-.1-.81,.07-1.63,.13-2.62,.1,.99,.19,2.12,.3,3.21,0Z"/><path class="f" d="M457.38,98.78c.09,.02,.2,.03,.29,.05,.03-.06-.1-.06-.29-.05Z"/><path class="f" d="M494.28,103.16c-.36,.03-.96,.03-1.51,.03,.27,.03,.73,.03,1.51-.03Z"/><path class="f" d="M91.08,103.98c-.83,.03-.13,.05,0,0h0Z"/><path class="f" d="M87.06,102.27c.18-.05,.31-.11,.33-.21-.07,.1-.18,.17-.33,.21Z"/><path class="f" d="M129.6,101.2s.04,0,.07,0c-.25-.08-.2-.07-.07,0Z"/><path class="f" d="M89.84,103.79c.31,.05,.67,.1,1.06,.13-.17-.03-.49-.08-1.06-.13Z"/><path class="f" d="M90.01,103.99c-.29-.02-.51-.03-.72-.04-.1,.07-.01,.12,.72,.04Z"/><path class="f" d="M92.24,103.96c-.47,0-.92-.01-1.34-.04,.16,.03,.23,.05,.19,.07,.24,0,.59-.02,1.15-.02Z"/><path class="f" d="M389.52,99.95c.05,.01,.12,.02,.18,.04,.84-.18,.47-.15-.18-.04Z"/><path class="f" d="M192.87,99.24s-.06,.02-.09,.02c.04,0,.09,.01,.12,.02l-.03-.04Z"/><path class="f" d="M195.84,98.92c-1.27,.54-1.99,.47-2.95,.36l.98,1.25,1.96-1.61Z"/><path class="f" d="M311.11,98.76l-2.09-.39c2.52-.64,4.35-.42,2.39-.97-.3,1.36-8.12,.14-8.41,1.5l-1.38-.29c.39,.01,.46-.07,.85-.05-2.68-.65-1.99,.98-5.44,.79-1.2-.1-2.04-.3-1.22-.46l-2.68,.34c-.78-.03-.59-.26,.19-.24l-4.09,.11,.03-.04c-.58,.21-1.91,.54-2.55,.68-1.04-.19,.52-.14,.26-.31l-2.26,.33c-.92-.35,.95-.69,2.52-.64-2.11-1.36-1.88,.34-6.44-.45l2.14-.17c-1.38-.77-3.05-.49-5.46-.97,.57,.25,4.84,1.21,2.38,1.55-.69-.1-1.6-.15-2.93,.12-.01-.48-1.31-.36-2.93-.34l.11-.64c-1.75,.18-1.61,.51-2.64,.8-1.95-.06-2.36-.56-2.82-.98-3.12-.1,2.16,.79-1.54,.92-2.6-.24-4.42,.02-7.53,.4-1.82-.22,.32-.39-.33-.57l-1.61,.51c-.39-.01-.27-.17-.2-.25-1.36,.2-.11,.64-2.25,.81-.58,.7-4.38-1.03-7.03-.23-.65-.18,.31-.39,.12-.64-3.63,.52-3.11,.38-6.09,1.09l-2.54-.42c1.86,.48-.52,1.05-2.6,1.52,.66,.23,1.23,.43,1.61,.53l-3.33,.34c-.4-.11-.07-.32,.48-.59-.23,.05-.44,.1-.61,.15-1.19-.24-.57-.61,.28-.96,.41,.13,.81,.26,1.2,.39,.82-.39,1.59-.82,1.42-1.19-.22,.07-.63,.14-1.09,.17,.21-.11,.35-.2,.25-.26-.11-.07-.46,.07-1,.24l-.76-.71-.18,.28-4.36-.45c-3.12,.72-5.83,1.77-10.77,2.07,1.23-.52,.26-.85,.33-1.47,1.35,.66,3.83-.28,6.39-.15-1.34-.07-1.04-.36-.7-.47l-4.57,.6c.1-.51-.97-.38-2.17-.59,.9,1-3.41,.67-5.27,.97-.12-.34,.33-.68,2.6-.6-2.5-.75-3.24,1.18-5.69,.54,.55,0,.85,.04,1.07-.13-1.29,.3-4.46,.06-3.71-.23h.55c-3.68-.13-11.2-.01-11.75,.84-.04-.11,.48-1.03,.7-1.2l-6.56,2.86c.58-.73-1.64-2.47,1.41-2.88-.88-.1-1.96-.23-3.81,.03,.6,.1,1.49,1.06,.67,1.12-2.24-.81-1.56-.43-4.32-1.13,.9,.16-.1,1.3-1.51,1.27,.22-.17-.12-1.13,.4-1.25l-3.52,1.12c.88-.2,.16-.95-.63-1.27,.37,.22-3.05-.02-3.99,.09l1.49,.26c-3.98-.17-3.93,1.58-7.88,1.52,.48-.23,1.18-1.43-.83-1.57-.92,.58-4.07,2.77-7.56,3.21l-.67-.33-2.68,.38c1.67-.87,6.35-2.69,8.91-3.4-1.49-.26-.41-.39-2.64-.36-.79-.31,1.22-.47,1.87-.49l-5.19-.2c.23,.67-3.97,.67-3.77,1.23l5.64-.7c.23,.67-3.26,1.91-6.94,1.79-.94-.27,.7-1.2,.62-1.42-.48,.23-3.49,.44-3.83,.28l1.56-.36c-2.05-.25-3.34,.89-5.8,.25-.85-.04-2.54-.87-2.68-.47,1.38,.77,1.66,3.14,.73,3.72-.3-.05-4.46-.73-5.43-1.11-1.4-.6,2.1-1.43,.91-1.95-.05,.18-.82,.41-1.15,.48-.89-.16,.37-.57-1.57-.49-.32,.68-3.94-.06-.92,.58-1.9,.19-2.01-.14-4.24-.11,.71,.44-2,1.5-3.9,1.69,.11-.17-.31-.4-.52-.5-3.89-.06-5.97-.37-9.59-.38-.33-.17-2.08-.36-1.34-.66-.52,.12-1,.35-2.12,.37-2.16-.59,2.49-.09,.84-.8-.14,.4-2.89,.55-4.48,.79,.49,.61,3.68,.12,5.27-.13,0,.84-2.77,1.73-6.55,2.12-3.01,.21-1.3-.55-1.83-.43-5.65-.15-4.82,1.47-9.51,.86-1.86-.54-.08-1.07-.5-1.46,2.45-.2,3.76,.34,5.43,.32l-2.05-.25c.78-.18,2.42-.31,3.31-.16-1.56-.48-9.55-.09-13.91-.54-.77,.18-2.11,.37-1.48,.58l1.38-.08c1.27,.43-2.6,.6-.85,.8-1.85,.3-3.93,.78-6.53,.54l-.49-.61c.06,.18,1.7,.37,2.44,.18-1.09,.27-4-.83-5.19-.03l1.83,.42c-1.86,.31-4.16,.96-6.47,.77,1.05,.61,.53-.07,2.17,.64-1.42-.88,5.91,.04,3.62-.89,1.68,.82,2.91,.35,5.12,1.05-.07-.2-.78-.39,1.16-.29,.09-.06,.29-.13,.43-.18,.06,0,.08,0,.13,.02-.04,0-.07-.02-.11-.02,.08-.03,.09-.04-.04,0-.46-.09-.84-.19-.99-.31,.96-.46,4.05-.45,5.09-.69,1.15,.1-.48,.23,.15,.45l1.56-.36c.15,.45,3.06,.75,.35,1.01l2.44,.02c1.44,.25,3.41,.35,4.63,.16,1.15,.1,2.91-.5,1.9-.15l3.83-.28,.04,.11c3.77,.06,7.77-.74,12.09,.07,1.27-.11,2.58-.25,4.71-.12l.41,.39c1.63-.14,4.9,.39,5.6-.02,1.76,1.05,7.92,.23,10.79,.41l.11-.51c1.98,.03,3.87-.12,6.32-.32l-.15-.45c2.11-.37,5.43,.32,8.78,.27-.23,.17-1.08,.13-1.68,.02,3.99,1.01,8.43-.74,12.05,0,.9-.16,1.56-.11,2.19,0-.08,0-.16,0-.22,.02,.09,0,.23,0,.37,0,.4,.08,.81,.17,1.25,.24-.38-.11-.74-.2-1.06-.24,.7,0,1.75-.06,2.79-.18l.44,.48c.08,0,.15,0,.24-.01,1.02,.18,.82-.23,.27-.59,.52-.08,1-.17,1.37-.29,.83,.78,2.72-.26,3.84,.57,.7-.4,5.2-.3,5.76-1.15,.04,.11,.34,.16-.22,.17,1.15,.1,2.31,.19,3.34-.05l.49,.61,2.52-.82c1.53,.37,2.17,.59,.65,1.06,3.67-.72,2.98-.27,6.1-.99l-.15,.4c1.12-.02,2.9-.55,3.57-.22,2.5,.75,12.35,.1,18.76,.8-1.24-1.17,2.98,.52,3.23-.38,.37,.28,1.27,.43,.23,.67,3.27-.27,4.91,.44,7.17-.32,.37,.28-.7,.4-.37,.57,.26-.06,1.04-.24,1.38-.08,.33,.16-.48,.23-1,.35,3.34-.05,3.68-.9,3.92-1.69,1.69,.38,2.54,.32,3.76-.2,.59,.26,1.57,.53-.5,.63,1.17,.04,7.13,.38,7.25-.26,.37,.16,1.63,.05,1.94-.03,2.62,.04,2.85,.1,5.42,.04l-.71-.1c1.02-.77,2.14-.17,4.21-.26l-.06,.08c4.76,.56,2.05-.27,6.74,.37l-.26-.48c.44-1.03,4.16,.61,6.88,.21l-.98-.27c1.49-.35,4.16,1.4,5.65,1.53,.33,.09-.51,.14-.97,.21,3.91,.61,.51-.63,3.42-.77,.54,.34-.69,.86,1.27,.92,.98,.27,5.69-1.1,8.36-.45-.59-.26-1.17-.52,.18-.72,2.07-.09,5.61,.99,7.48,.16,.26,.07,.36,.14,.37,.2,1.59-.21,5.15-.35,6.11-.8,1.47,1.66,9.86-.81,9.82,.72l4.88-.08-.13,.16c3.12,.1,4.22-.27,5.32-.63,.72,.1,.19,.25,.13,.33,4.56,.31,5.01,.24,8.83-.52l.4,.5c1.04-.29,6.59,.78,11.05,.2-.04,.06-.14,.15-.49,.22,5.03-.58,12.03,1.38,13.88-.43l3.32-.44c-4.29-.14,.64-.78-1.13-1.08,1.69-.11,4.36,.54,2.29,.64l-.32-.09c-.76,.94,5.33,.33,5.22,.97,8.44-.05,16.67,.47,24.58,.51l-.91-.73,2.76,.04c.72,.17,.97,.57-1,.54,1.04,.41,3.3-.35,3.36-.51,3.85,.3-1.51,.85-.32,.87l1.6-.05-.36-.09c1.3-.3,1.42-.62,3.78-.58,1.5,.15,.77,.45,1.36,.48,0,.05,.2,.08,.9,.02l3.48,.06-1.39-.58c1.54-.28,3.27,.03,1.66-.62,2.35,1.01,12.97,.36,14.41,.68,2.16-.42,4.29-.41,6.93-.36-.66-.12-1.05-.77,1.23-.69-.83,1.34,4.17,.58,6.01,1.55-1.64-.64,6.47-.16,3.89-1.07,1.9,.11,.12,.5,1.56,.82,4.52-.52,9.96,.34,15.55,.16,.09-.18-.85-.44,.35-.71l2.95,.88c1.1-.09,1.02-1.02,3.03-.4-.28-.15-.71-.37,.03-.43,10.94,.86,22.36-.7,33.48,.91-1.51-.34-.5-.37,.65-.39-.75-.08,.02-.43-.13-.67l4.65,.66c.85-.66,4.99-.04,5.47-.68l-1.47,.11c1.96-.75-2.74-1.66-2.46-2.62-2.19,.85-5.79-1.26-9.39-.04-.79-.2,.68-.31,.25-.53-.91,.41-2.01,.5-4.06,.31l.23-.1c-5.74,.1-8.2-.3-14.64-.57l.48,.47c-1.39-.06-1.68-.21-2.33-.33-1.59,.72,3.89,.04,2.44,.83-1.84-.96-9.77-.01-11.01-1.11-2.13,0,.62,.55-1.51,.54l-.56-.3-.54,.38c-1.4-.06-2.1-.43-2.15-.68,.34,.03,.96-.07,1.33-.09-1.81-.35-5.11,.12-5.73,0l2.05,.18c-5.82,.28-12.92-.11-18.53,.49l.43,.22c-4.29,.41-3.44-.25-8.15-.05l.17-.05c-.94,.22-2.2,.33-3.49,.31,1.19-.26-2.24-.51-.68-.8-4.65,.44-2.3,.35-5.37,1.18l-.71-.37c-1.05,.34-1.13,.51-3.49,.61,1.93-.32-1.5-.56,.66-.99-4.94-.81-7.33,.82-9.59-.37-2.27,1.03,4.27,.57,3,.79,1.06,.34-1.87,.77-3.42,.66-1.58-.02-2.68-1.31-6.65-1.29,.39,0,.42-.07,.82-.07-1.48-.26-2.91,.35-4.73-.07-1.02,.62-2.36-.04-2.66,.76l3.64-.18c-2.06,.21-4,1.13-7.4,.68,.26-.16,1.28-.37,1.97-.49-.99-.23-1.91,.15-2.94-.08,.29-.79,4.42-.17,6.63-.78-1.07-.33-4.18,.57-3.07-.28-1.6,1.09-3.91-.14-6.6,.7l.18-.47c-.42,.07-1.31,.3-2.09,.29l1.42-.62c-2.17,.52-4.19-.46-6.28-.17,4.37-.01,.98,.57,2.83,.92-5.39,.64-3.1-1.24-9.13-1.01,.82-.07,3.07,.29,1.79,.5-1.15-.1-2.66-.28-3.37-.53-4,.1,.61,.49-1.09,.78-1.36-.58-1.96,.24-3.71,.42v-.48c-4.57-.31-1.22,1.01-5.32,.63l1.73-.67-2.14,.17,.44-.55c-2.33,.41-3.05,.3-5.33,.15,.53,.34-.3,.88-2.31,.89-1.38-.29,.77-.46-2.09-.39,.65-.3,1.35-.68,2.6-.24,.13-.16,.64-.3,.77-.46-1.48-.33-3.72-.08-4.76-.07,.4,.02,.87,.04,1.12,.11l-4.14,.67c-.65-.18-.13-.33,.38-.47-.84,.05-1.42,.27-2.65,.32,.32-.39,.24-.8,1.99-.98l-3.95,.44c-.26-.17-2.03-.47-1.51-.61-2.19-.23-5.37,.76-8.27,.46-.15,.08-.45,.15-1.07,.21-2.73-.09-5.14-.57-8.38-.03l-1.83-.7c-2.53,.16,2.48,.89-1.73,1.15-2.99,.22-1.11-.6-2.16-.8-1.48,.35-4.07,1.08-6.81,.5,.91-.13,1.62-.03,2.47-.08Zm-31.23,.31c.61-.1,1.81-.41,2.25-.13-.69,.55-1.22,.29-2.25,.13Zm-47.47,1.16c.45-.16,1.15-.08,1.93,.1-.57,.04-1.22,.02-1.93-.1Zm-132.24,3.36s.04-.01,.06-.02c1.35,.19,.87,.11-.06,.02Zm-2.8-.21c-.28,.07-.26,.13-.14,.2,.2-.12,.83-.13,1.54-.1-.2-.13-.56-.21-1.4-.11Zm301-.19l-.55-.13c1.23-.14,.89-.01,.55,.13Z"/><path class="f" d="M237.79,99.57c.17,.08,.22,.17,.26,.26,.24-.08,.24-.17-.26-.26Z"/><path class="f" d="M330.53,98.51s.06,0,.1,0c.05-.03,.08-.06,.1-.09l-.19,.08Z"/><path class="f" d="M140.78,99.29c.58,.07,.9,.16,1.11,.25,.03-.12-.23-.22-1.11-.25Z"/><path class="f" d="M82.51,104.2l1.8-.13c-.87,.02-1.18-.08-1.62-.16,.04,.11,.38,.28-.18,.28Z"/><path class="f" d="M66.93,101.22c-.26,.06-.56,0-.82,.07l.07,.22c1.12-.01,1.9-.2,.74-.29Z"/><path class="f" d="M80.85,102.6c-.14-.41-1.27-.27-2.53-.19,.08,0,.15,0,.22,0-.37,.57,.97,.38,2.3,.19Z"/><path class="f" d="M78.03,102.42c-.39,.02-.78,.03-1.16,.01-.15,.23,.47,.05,1.16-.01Z"/><path class="f" d="M93.81,103.65c-.6-.1-.37,.52-.71,.35-.67,.52,3.98-.62,.71-.35Z"/><polygon class="f" points="79.83 101.26 80.28 101.76 80.98 101.36 79.83 101.26"/><path class="f" d="M89.76,101.63l-2.01-.14c.03,.08-.22,.13-.54,.17,1.24,.02,2.6,.12,2.55-.03Z"/><path class="f" d="M87.21,101.66c-.64,0-1.26,0-1.62,.08,.35,0,1.1-.02,1.62-.08Z"/><polygon class="f" points="82.58 101.11 83.17 101.22 84.59 101.25 82.58 101.11"/><path class="f" d="M111.36,101.73l2.19-.14c.22-.17-.37-.28-1.19-.21-.53,.12-1.34,.19-1,.35Z"/><path class="f" d="M104.73,100.35c.59,.1,.63,.22,.97,.38l.07-.62-1.03,.24Z"/><path class="f" d="M111.13,100.21c.22-.17,3.18-.49,.4-.46-.22,.17-2.42,.31-.4,.46Z"/><polygon class="f" points="144.17 100.99 143.61 101 143.69 102.02 144.17 100.99"/><path class="f" d="M173.3,98.56c-2.6-.24-.62,.63-2.97,.32-.61,.24,1.92,.25,1.29,.46,1.57-.25,2.39-.11,1.67-.78Z"/><path class="f" d="M171.63,99.34c-.25,.04-.52,.09-.8,.15,.45-.06,.67-.11,.8-.15Z"/><polygon class="f" points="500.4 103.71 502.08 103.92 501 103.58 500.4 103.71"/><path class="f" d="M503.61,102.95l.39,.65,1-.59c-.38,.03-1.11,.08-1.4-.06Z"/><path class="f" d="M275.24,97.76l-.13,.16c.26,.17,.65,.18,1.43,.21l-1.31-.36Z"/><polygon class="f" points="297.91 98.25 297.52 98.24 298.25 98.82 297.91 98.25"/><path class="f" d="M316.93,97.5c-.78-.02-1.69,.11-2.47,.08,1.69-.11,2.68,.65,2.47-.08Z"/></g></svg>